<svg version="1.1" id="Layer_1" xmlns="http://www.w3.org/2000/svg" xmlns:xlink="http://www.w3.org/1999/xlink" x="0px" y="0px"
	 width="100%" viewBox="0 0 2000 1500" enable-background="new 0 0 2000 1500" xml:space="preserve">
<path fill="aliceblue" opacity="1.000000" stroke="none" 
	d="
M1179.000000,1501.000000 
	C786.000122,1501.000000 393.500244,1501.000000 1.000263,1501.000000 
	C1.000175,1001.000244 1.000175,501.000519 1.000088,1.000599 
	C667.666199,1.000399 1334.332397,1.000399 2000.999023,1.000200 
	C2000.999268,500.999390 2000.999268,1000.998779 2000.999634,1500.999023 
	C1727.166626,1501.000000 1453.333374,1501.000000 1179.000000,1501.000000 
M414.572235,812.187317 
	C419.610901,809.030396 425.271759,806.549805 429.573639,802.592102 
	C443.412323,789.860413 446.867371,769.621643 438.812347,752.629822 
	C430.798431,735.724792 412.927795,726.101379 393.560181,728.013123 
	C391.773499,728.189514 389.350616,727.435791 388.051941,726.224976 
	C363.400635,703.242310 323.931152,709.229431 307.835297,738.843689 
	C305.295197,743.517151 302.447723,745.378479 297.424561,746.124329 
	C282.739929,748.304565 271.529358,760.889832 271.035645,775.013672 
	C270.195618,799.044312 294.206268,814.805664 315.957642,804.412048 
	C318.178253,803.350952 319.516998,803.335938 321.663849,804.857239 
	C338.203827,816.577515 355.848053,818.497559 374.551697,810.365662 
	C375.970428,809.748718 378.191498,809.695557 379.530457,810.378540 
	C390.707245,816.080200 402.117096,816.606018 414.572235,812.187317 
M513.912903,880.060059 
	C515.954285,880.501526 518.124634,880.636353 520.016846,881.432373 
	C537.086304,888.613647 556.992493,884.794006 569.328796,871.848999 
	C582.276245,858.262573 585.473206,837.804260 576.620239,821.465759 
	C567.565369,804.754517 553.063599,797.195190 534.190857,798.065918 
	C530.681335,798.227783 528.039490,797.617920 525.248230,795.100830 
	C516.020874,786.779907 504.874451,782.203003 492.518066,782.223328 
	C470.763031,782.258972 454.756836,792.427917 444.689056,811.729248 
	C443.372314,814.253662 442.230042,815.856018 438.871613,815.947388 
	C420.189087,816.456055 404.560791,834.544495 411.124573,856.456909 
	C416.413544,874.113586 436.948395,882.651550 453.621704,874.734924 
	C456.032837,873.590149 457.789307,873.002502 460.330383,874.857971 
	C476.817688,886.897095 494.531647,888.289917 513.912903,880.060059 
M1679.709229,730.470215 
	C1679.710571,714.639832 1679.589966,698.807861 1679.787476,682.979919 
	C1679.847168,678.194397 1680.220337,673.269043 1681.441406,668.670959 
	C1684.199829,658.283875 1691.527466,653.519714 1702.821411,653.965271 
	C1712.378540,654.342163 1718.061890,659.406250 1720.031738,670.133850 
	C1720.986938,675.335388 1721.268555,680.714722 1721.318237,686.018616 
	C1721.474365,702.680603 1721.375977,719.344910 1721.376099,736.008362 
	C1721.376099,737.800232 1721.376099,739.592163 1721.376099,741.548218 
	C1730.598755,741.548218 1739.285522,741.548218 1748.275757,741.548218 
	C1748.275757,723.398438 1748.393555,705.583435 1748.217896,687.771301 
	C1748.147339,680.630310 1747.977783,673.411133 1746.890137,666.376404 
	C1744.929077,653.694214 1739.699829,642.298767 1727.527222,636.626953 
	C1710.367554,628.631409 1693.268921,629.728088 1677.245972,640.390320 
	C1674.833618,641.995605 1672.821167,644.201782 1670.968506,645.827393 
	C1651.036865,625.553955 1629.876099,629.333984 1608.142090,641.539551 
	C1607.666626,638.691528 1607.237427,636.120605 1606.822632,633.636230 
	C1599.077148,633.636230 1591.791504,633.636230 1584.306152,633.636230 
	C1584.306152,669.749390 1584.306152,705.627808 1584.306152,741.518677 
	C1593.318115,741.518677 1602.034302,741.518677 1610.964111,741.518677 
	C1610.964111,739.331482 1610.964233,737.508423 1610.964233,735.685364 
	C1610.964355,712.856445 1610.918091,690.027344 1611.046997,667.199158 
	C1611.057861,665.259583 1611.692017,662.804749 1612.963501,661.476562 
	C1620.411011,653.696655 1629.768433,652.176880 1639.637207,655.141235 
	C1648.853394,657.909668 1651.714111,665.941162 1651.979858,674.395996 
	C1652.623535,694.867798 1652.577393,715.361328 1652.803833,735.846191 
	C1652.825195,737.779541 1652.806641,739.713257 1652.806641,741.607361 
	C1662.027588,741.607361 1670.625244,741.607361 1679.709106,741.607361 
	C1679.709106,738.049927 1679.709106,734.753784 1679.709229,730.470215 
M488.817291,605.087341 
	C460.336884,611.650818 443.911469,634.416077 443.250641,659.230042 
	C442.231476,697.501160 476.554932,722.966064 510.022675,717.251709 
	C544.128113,711.428589 566.067383,674.303589 554.071289,641.929077 
	C545.157654,617.873535 519.686401,599.437500 488.817291,605.087341 
M261.579071,877.070923 
	C252.361557,887.331726 251.170349,901.347839 258.619110,911.898682 
	C266.191101,922.624084 279.593689,926.193359 292.394928,920.596924 
	C294.982971,919.465515 296.538605,919.439880 298.968750,921.193848 
	C312.117889,930.684631 326.553009,931.993408 341.545227,926.478943 
	C345.124878,925.162292 347.866058,924.975891 351.392609,926.592468 
	C365.868896,933.228638 382.337677,929.624512 393.869507,917.691345 
	C404.394348,906.800171 407.286774,889.716797 400.405426,876.023376 
	C392.809570,860.908081 380.415436,853.325562 363.328186,854.001465 
	C359.919006,854.136292 357.164703,853.764771 354.327484,851.190369 
	C346.566467,844.148254 337.112396,840.232727 326.649445,840.172058 
	C307.878052,840.063049 293.987488,848.651550 284.776917,865.058777 
	C283.658630,867.050842 281.209625,869.549622 279.299530,869.617310 
	C272.570740,869.855652 267.064789,872.359497 261.579071,877.070923 
M723.291260,737.155762 
	C753.570862,753.553345 785.771790,741.247070 795.677063,709.301147 
	C800.238037,694.591431 800.123962,679.765686 795.192688,665.098328 
	C786.571228,639.454590 764.511108,626.915161 738.236633,633.169495 
	C732.245178,634.595703 726.653870,637.703613 720.369507,640.243103 
	C720.369507,619.976074 720.369507,599.743347 720.369507,579.410034 
	C711.206787,579.410034 702.614380,579.410034 693.919189,579.410034 
	C693.919189,633.657654 693.919189,687.665771 693.919189,741.505371 
	C702.438599,741.505371 710.518677,741.505371 718.666382,741.505371 
	C718.866150,739.225891 719.033569,737.314880 719.245850,734.893188 
	C720.664734,735.705566 721.642090,736.265137 723.291260,737.155762 
M1081.799194,656.759583 
	C1078.278564,651.971069 1075.431396,646.440735 1071.118530,642.524719 
	C1054.008911,626.989441 1021.580811,627.869934 1004.106812,644.459717 
	C986.000916,661.649292 982.820923,683.228210 989.475769,706.093872 
	C995.858398,728.024292 1011.621338,740.148438 1034.263794,743.225891 
	C1050.683350,745.457581 1066.351318,743.092529 1081.433350,735.763916 
	C1081.004639,728.247131 1080.589844,720.972839 1080.152222,713.300964 
	C1078.583984,714.014526 1077.561157,714.476929 1076.540771,714.944763 
	C1075.483398,715.429626 1074.444702,715.958862 1073.370117,716.401550 
	C1060.247070,721.808105 1046.884766,724.366882 1033.114624,719.021973 
	C1022.316284,714.830627 1014.539551,703.541565 1015.513916,693.599976 
	C1017.283630,693.599976 1019.091064,693.599915 1020.898560,693.599915 
	C1040.550049,693.599915 1060.202148,693.532898 1079.852661,693.664978 
	C1083.182251,693.687317 1084.823853,693.148315 1085.355713,689.314392 
	C1086.874268,678.368958 1086.379395,667.756104 1081.799194,656.759583 
M1447.355835,647.168518 
	C1431.739990,626.919983 1396.107910,628.558777 1379.441284,641.040710 
	C1351.607910,661.885437 1350.740112,709.935730 1377.770996,731.870972 
	C1397.356689,747.764526 1430.403687,746.523560 1450.878296,736.693115 
	C1451.801880,736.249695 1452.833252,734.759949 1452.797974,733.794800 
	C1452.552368,727.087891 1452.037964,720.390808 1451.670776,714.647705 
	C1442.437256,717.043701 1433.627930,720.242859 1424.549683,721.499939 
	C1404.016724,724.342957 1388.827393,713.044373 1386.334351,693.692627 
	C1409.468384,693.692627 1432.549438,693.692627 1455.468628,693.692627 
	C1460.365479,679.086975 1457.232788,660.819153 1447.355835,647.168518 
M1075.674072,871.128418 
	C1096.947632,871.128418 1118.221313,871.128418 1140.975098,871.128418 
	C1140.975098,863.762329 1141.529175,856.948181 1140.863159,850.255432 
	C1139.344482,834.995605 1132.716187,822.566040 1118.826904,814.941833 
	C1097.788940,803.393555 1067.862793,809.521851 1053.226318,828.418701 
	C1044.960449,839.090393 1041.451904,851.454529 1041.660889,864.816284 
	C1042.030029,888.416504 1051.234863,907.218933 1073.685669,916.715149 
	C1093.685913,925.174805 1114.085693,923.059326 1133.872803,914.687561 
	C1134.945068,914.233887 1136.256226,912.624939 1136.233276,911.580688 
	C1136.083984,904.801636 1135.595581,898.030090 1135.192749,890.798889 
	C1122.584839,897.596313 1109.906372,900.877197 1096.203735,899.022095 
	C1081.531128,897.035645 1069.848633,884.593445 1070.279785,871.128479 
	C1071.754150,871.128479 1073.239258,871.128479 1075.674072,871.128418 
M830.611572,891.237183 
	C832.275635,912.093079 846.866150,923.916931 867.555908,921.405029 
	C877.853821,920.154785 887.190125,916.852722 895.056824,909.469482 
	C903.498108,922.270264 915.980652,922.310364 929.130981,921.597534 
	C929.902466,914.162415 930.633545,907.115906 931.393555,899.791443 
	C930.020020,899.711060 929.213196,899.675903 928.408325,899.614868 
	C920.487305,899.014404 919.345947,897.871033 918.838989,890.000793 
	C918.753357,888.671509 918.691345,887.339233 918.669983,886.007568 
	C918.445557,872.021851 918.644165,858.014282 917.913025,844.055359 
	C916.945068,825.575500 907.128601,813.682739 890.107666,810.529297 
	C873.366211,807.427551 857.339294,810.864197 842.109497,818.080566 
	C841.008118,818.602539 840.108459,820.948853 840.210388,822.368225 
	C840.638367,828.328796 841.483154,834.259460 842.233093,840.697266 
	C844.321838,839.789062 846.116455,839.017273 847.904297,838.230103 
	C857.030701,834.211243 866.470337,832.019470 876.533447,832.939270 
	C886.343750,833.835876 891.709900,840.251526 890.616699,850.380737 
	C888.546082,850.568176 886.411621,850.735474 884.283020,850.958252 
	C870.940002,852.354675 857.967957,855.115662 846.403381,862.316345 
	C836.087708,868.739380 830.003479,877.724915 830.611572,891.237183 
M1487.457275,659.780640 
	C1495.678101,656.231934 1504.211914,654.409790 1513.205322,655.077942 
	C1523.688599,655.856812 1528.951050,661.805847 1528.553589,672.378357 
	C1522.297852,673.254028 1515.996216,673.829956 1509.826416,675.064270 
	C1497.473022,677.535645 1485.636963,681.373474 1476.468994,690.677002 
	C1467.421387,699.858215 1466.307739,710.944763 1469.736084,722.654602 
	C1473.064575,734.023193 1480.936768,741.074097 1492.583984,743.136047 
	C1507.522705,745.780579 1520.895020,741.936768 1532.473267,732.043762 
	C1541.550293,743.612488 1550.739990,745.250488 1566.800537,743.360229 
	C1567.538574,736.335693 1568.278809,729.290466 1569.039551,722.049255 
	C1567.697266,721.988770 1566.889038,721.951355 1566.080811,721.916138 
	C1558.530029,721.587097 1557.079834,720.513794 1556.465698,712.868958 
	C1555.946899,706.411011 1556.221802,699.892395 1556.040405,693.403564 
	C1555.747803,682.933105 1556.117798,672.373108 1554.845093,662.018372 
	C1553.078857,647.648254 1545.474487,637.000244 1530.739380,633.515137 
	C1512.140991,629.116211 1494.541992,633.093384 1477.435913,641.296143 
	C1478.238159,648.628235 1479.009277,655.675476 1479.815552,663.043701 
	C1482.514404,661.867249 1484.622803,660.948120 1487.457275,659.780640 
M872.317627,694.349121 
	C872.546204,697.338623 872.717468,700.333862 873.012268,703.316833 
	C875.666504,730.171265 892.666809,745.398254 919.555420,743.699097 
	C927.195251,743.216309 934.632507,739.527039 942.241028,737.285095 
	C942.378967,738.012756 942.714355,739.782166 943.065674,741.635498 
	C951.318909,741.635498 959.395020,741.635498 967.630554,741.635498 
	C967.630554,705.523071 967.630554,669.661804 967.630554,633.799561 
	C958.603210,633.799561 949.899292,633.799561 940.995605,633.799561 
	C940.995605,658.345764 940.827148,682.496399 941.132996,706.640991 
	C941.196777,711.675720 939.289856,714.655823 935.484009,717.276550 
	C920.305969,727.727966 902.307312,719.997437 899.989197,701.889587 
	C899.462158,697.772095 899.186401,693.596069 899.163940,689.445007 
	C899.072937,672.619446 899.125854,655.793030 899.125671,638.966980 
	C899.125671,637.219299 899.125610,635.471619 899.125610,633.712219 
	C889.806274,633.712219 881.219116,633.712219 872.270996,633.712219 
	C872.270996,653.808411 872.270996,673.596069 872.317627,694.349121 
M645.422546,636.500244 
	C645.422241,620.336365 645.508362,604.171692 645.357483,588.009216 
	C645.322083,584.225098 645.095398,580.220398 643.800049,576.748718 
	C642.936035,574.432861 640.316040,571.929565 637.961060,571.206482 
	C634.253174,570.067932 632.812622,573.667603 632.022339,576.498779 
	C631.093994,579.824707 630.417664,583.348267 630.415100,586.786743 
	C630.334351,695.934692 630.338196,805.082642 630.402344,914.230591 
	C630.404175,917.351868 630.877441,920.562378 631.714355,923.568787 
	C632.584473,926.694397 633.567749,930.123474 638.054382,930.039673 
	C642.239136,929.961426 643.372681,926.755920 644.029602,923.784180 
	C644.917542,919.767578 645.365112,915.572449 645.368286,911.453369 
	C645.439026,820.135742 645.422363,728.817993 645.422546,636.500244 
M1100.019409,666.235901 
	C1100.744629,675.958557 1105.546753,683.276428 1113.766235,688.144165 
	C1118.885986,691.176147 1124.430908,693.503906 1129.840332,696.029053 
	C1134.800293,698.344299 1140.008179,700.184265 1144.788696,702.812439 
	C1149.950073,705.649841 1151.904175,710.345154 1150.786987,715.367126 
	C1149.627075,720.581604 1145.670532,722.348572 1140.966797,723.200745 
	C1129.601929,725.259827 1119.242065,722.076721 1109.194702,717.197876 
	C1106.617920,715.946533 1104.033081,714.712463 1101.188965,713.343872 
	C1100.439941,720.140930 1099.812988,726.264099 1099.067993,732.372925 
	C1098.776489,734.764099 1099.146484,736.223511 1101.784546,737.313721 
	C1118.612061,744.268188 1135.878662,746.061646 1153.588623,741.821411 
	C1167.616821,738.462585 1176.022095,729.154907 1177.743286,715.869202 
	C1179.535767,702.034119 1173.852661,691.709106 1160.425293,684.568665 
	C1157.789429,683.166931 1155.049438,681.953674 1152.321411,680.734070 
	C1145.803711,677.820129 1139.168335,675.150085 1132.762939,672.009705 
	C1127.200562,669.282654 1125.107666,665.171509 1126.080078,659.937622 
	C1127.083984,654.533691 1131.019531,652.256348 1135.943115,651.450439 
	C1143.937012,650.142029 1151.519287,651.820007 1158.677368,655.361145 
	C1162.777710,657.389709 1166.691406,659.796143 1171.230347,662.335205 
	C1171.890015,655.766479 1172.262329,649.636169 1173.207764,643.595642 
	C1173.736450,640.218994 1172.378662,638.960571 1169.611450,637.669312 
	C1156.673584,631.632385 1143.152222,629.969910 1129.177246,632.168091 
	C1110.294434,635.138428 1099.715088,647.312988 1100.019409,666.235901 
M992.679016,861.040405 
	C989.790771,869.013611 986.902527,876.986816 983.692322,885.848694 
	C982.830322,883.492554 982.366028,882.250977 981.920837,881.002563 
	C974.055603,858.950806 966.233398,836.883362 958.239624,814.878296 
	C957.697021,813.384766 955.912170,811.337708 954.630188,811.282227 
	C946.862183,810.946533 939.072388,811.114990 931.341125,811.114990 
	C931.245850,811.830017 931.075378,812.202148 931.177856,812.470032 
	C944.521118,847.365906 957.856506,882.264954 971.366028,917.096497 
	C971.824890,918.279785 974.005310,919.397278 975.448975,919.486633 
	C980.259033,919.784668 985.119629,919.325134 989.921082,919.685791 
	C993.864075,919.981934 995.692322,918.709412 997.125549,914.877197 
	C1005.849487,891.550293 1014.910522,868.349609 1023.837158,845.098389 
	C1028.112061,833.963318 1032.338623,822.809692 1036.797241,811.113220 
	C1028.894165,811.113220 1021.605225,811.260986 1014.327454,811.041382 
	C1011.361816,810.951782 1009.970886,811.895630 1008.996338,814.724731 
	C1003.750916,829.951843 998.302429,845.109009 992.679016,861.040405 
M1276.431152,732.671448 
	C1275.834106,726.921082 1275.237183,721.170654 1274.629639,715.318726 
	C1269.716064,717.113586 1265.168213,719.167419 1260.411865,720.445435 
	C1237.861328,726.504578 1219.696167,713.935181 1217.493774,690.942871 
	C1215.365601,668.725403 1229.305908,653.247559 1251.543701,654.134033 
	C1259.143799,654.436951 1266.655029,656.967651 1274.510010,658.541199 
	C1274.996216,653.476746 1275.258789,647.824463 1276.170654,642.279053 
	C1276.767944,638.647766 1275.355469,636.909668 1272.227905,636.130493 
	C1265.640747,634.489441 1259.086914,632.085266 1252.400146,631.582764 
	C1224.738892,629.504211 1203.297852,640.858032 1193.977295,664.612610 
	C1190.247314,674.119263 1189.104004,684.024292 1190.122925,694.059082 
	C1192.270264,715.205566 1202.081421,731.537659 1222.288330,739.660950 
	C1239.184814,746.453491 1256.492798,745.350647 1273.537720,739.105347 
	C1276.466309,738.032349 1277.444092,736.409363 1276.431152,732.671448 
M699.997314,849.502380 
	C700.004089,864.334656 699.861328,879.169006 700.061157,893.998657 
	C700.247803,907.847168 709.107971,919.424377 721.522156,920.834717 
	C730.192871,921.819763 739.065918,921.024719 748.418030,921.024719 
	C749.122131,914.336792 749.875061,907.185364 750.695557,899.392029 
	C746.376465,899.392029 742.723816,899.549255 739.088928,899.362122 
	C728.773987,898.831177 727.143005,897.183105 727.056702,886.635986 
	C726.920349,869.971619 726.965515,853.305603 726.966797,836.640320 
	C726.966919,835.552002 727.246887,834.463684 727.452454,832.970276 
	C735.311340,832.970276 742.892822,832.970276 750.443115,832.970276 
	C750.443115,825.457825 750.443115,818.404358 750.443115,810.958374 
	C742.466187,810.958374 734.872437,810.958374 726.799316,810.958374 
	C726.799316,801.992554 726.799316,793.421936 726.799316,784.559448 
	C717.583435,785.536743 708.888062,786.458862 699.891846,787.412903 
	C699.891846,795.498962 699.891846,803.108337 699.891846,811.124512 
	C695.446411,811.124512 691.344360,811.124512 687.018311,811.124512 
	C686.228943,818.566589 685.481079,825.617676 684.678040,833.188477 
	C690.019348,833.188477 694.774353,833.188477 699.997314,833.188477 
	C699.997314,838.596130 699.997314,843.550171 699.997314,849.502380 
M817.417786,695.499878 
	C817.585449,703.983398 817.331360,712.501587 818.025085,720.941895 
	C818.938904,732.059998 826.268738,740.946960 836.130310,742.830933 
	C842.228333,743.995850 848.566467,743.903870 854.961426,744.388672 
	C855.791016,736.457397 856.531311,729.379578 857.287354,722.151611 
	C855.823303,722.004028 854.849609,721.903259 853.875427,721.808044 
	C846.799561,721.116577 845.434204,719.808411 844.820251,712.570801 
	C844.497192,708.761780 844.344238,704.927246 844.340942,701.104004 
	C844.307129,662.477600 844.320251,623.851257 844.320190,585.224854 
	C844.320190,583.287292 844.320190,581.349731 844.320190,579.448853 
	C835.080444,579.448853 826.494263,579.448853 817.417969,579.448853 
	C817.417969,617.987610 817.417969,656.243713 817.417786,695.499878 
M1186.646729,862.500061 
	C1186.646729,827.429871 1186.646729,792.359680 1186.646729,757.142944 
	C1177.416748,757.142944 1168.791992,757.142944 1159.746460,757.142944 
	C1159.746460,759.087646 1159.746460,760.891479 1159.746460,762.695312 
	C1159.746582,804.976501 1159.741699,847.257629 1159.757446,889.538818 
	C1159.758545,892.366516 1159.768188,895.207642 1160.025879,898.019470 
	C1161.037354,909.059021 1167.751221,918.046509 1177.730225,920.320923 
	C1183.907593,921.728882 1190.416992,921.680176 1197.137085,922.319580 
	C1197.986694,914.261658 1198.731323,907.198853 1199.490234,900.001953 
	C1198.497437,899.778137 1197.876587,899.576355 1197.241089,899.504089 
	C1188.167847,898.472229 1187.206787,897.620605 1186.899414,888.463440 
	C1186.620361,880.148865 1186.716064,871.821716 1186.646729,862.500061 
M826.184326,817.053589 
	C826.390808,814.621033 826.597229,812.188477 826.822632,809.532043 
	C813.267456,807.223267 803.633057,814.102783 794.202576,822.037903 
	C793.888855,818.101379 793.627441,814.820801 793.364868,811.525879 
	C784.783569,811.525879 776.590820,811.525879 768.509155,811.525879 
	C768.509155,847.681519 768.509155,883.422119 768.509155,919.359497 
	C777.430481,919.359497 786.024536,919.359497 795.107178,919.359497 
	C795.107178,917.333191 795.107178,915.545044 795.107178,913.756958 
	C795.107178,892.928284 795.362427,872.094604 794.953430,851.273926 
	C794.828918,844.936157 797.608154,841.358582 802.434021,838.394714 
	C809.376526,834.131042 816.946045,834.565125 824.865601,835.619934 
	C825.297791,829.543579 825.709473,823.755798 826.184326,817.053589 
M1335.814575,657.931763 
	C1340.909302,657.674011 1346.003906,657.416199 1351.607178,657.132690 
	C1352.165161,649.148376 1352.762451,640.602234 1353.379883,631.767639 
	C1339.970947,629.658264 1330.366333,636.262695 1320.894653,644.331177 
	C1320.503540,640.315247 1320.183838,637.031616 1319.856445,633.670593 
	C1311.532471,633.670593 1303.434937,633.670593 1295.281250,633.670593 
	C1295.281250,669.817871 1295.281250,705.694885 1295.281250,741.640503 
	C1304.192505,741.640503 1312.779053,741.640503 1321.890015,741.640503 
	C1321.890015,739.619690 1321.890015,737.836548 1321.890015,736.053345 
	C1321.890015,714.898376 1322.038940,693.741516 1321.779907,672.589722 
	C1321.718994,667.620117 1323.497803,664.239990 1327.453003,661.823486 
	C1329.843872,660.362671 1332.484375,659.310486 1335.814575,657.931763 
M475.358276,589.145264 
	C473.626587,585.206848 472.154541,581.118774 470.019592,577.412598 
	C469.291412,576.148560 466.896973,575.844238 465.263855,575.101440 
	C464.614166,576.756104 463.009521,578.767029 463.472015,580.006775 
	C466.187042,587.284668 469.196289,594.473938 472.587006,601.459778 
	C473.224396,602.773071 476.033691,603.032166 477.840820,603.777649 
	C478.294037,602.047119 479.411926,600.165100 479.059204,598.618347 
	C478.369141,595.592102 476.858368,592.753052 475.358276,589.145264 
M523.556213,727.921204 
	C525.484985,732.690979 527.183411,737.576355 529.485596,742.158508 
	C530.158264,743.497375 532.542664,744.569946 534.157288,744.590393 
	C534.960022,744.600525 536.823303,741.577637 536.453796,740.569092 
	C533.659363,732.942200 530.545349,725.422668 527.203247,718.017517 
	C526.737244,716.984863 524.265930,716.035583 523.118713,716.377136 
	C522.093750,716.682312 520.913757,718.899719 521.046021,720.140930 
	C521.302795,722.550964 522.432190,724.867981 523.556213,727.921204 
M570.481384,660.815125 
	C576.095093,660.533997 581.734253,660.469543 587.304382,659.816589 
	C588.666260,659.656982 589.802246,657.569702 591.042114,656.368713 
	C589.866211,655.274902 588.687805,653.236450 587.514893,653.239685 
	C579.581970,653.261230 571.638855,653.568359 563.729919,654.181213 
	C562.500916,654.276428 561.429688,656.406921 560.285522,657.596191 
	C561.551270,658.689148 562.658264,660.262451 564.125000,660.747131 
	C565.762817,661.288269 567.727234,660.841064 570.481384,660.815125 
M561.117188,703.369568 
	C564.597229,705.624084 567.958557,708.108093 571.624268,710.003479 
	C572.839844,710.632080 574.838257,709.746643 576.478760,709.553467 
	C576.106689,707.799072 576.338867,705.197632 575.262939,704.430115 
	C569.057861,700.004517 562.631592,695.862183 556.051575,692.014832 
	C554.894653,691.338318 552.655701,692.512207 550.916443,692.831543 
	C551.335693,694.404541 551.255493,696.552368 552.273193,697.436584 
	C554.751587,699.589844 557.739136,701.156982 561.117188,703.369568 
M439.647552,663.198181 
	C439.894257,660.209534 438.456451,658.894836 435.529602,659.016846 
	C428.056396,659.328369 420.569763,659.466919 413.120483,660.069946 
	C411.687500,660.185974 410.400391,662.104126 409.045990,663.190857 
	C410.375946,664.402893 411.712860,666.663696 413.034729,666.654907 
	C421.003357,666.601868 428.971558,666.075623 436.930359,665.559692 
	C437.747437,665.506714 438.501068,664.475098 439.647552,663.198181 
M423.908142,614.345581 
	C430.520325,618.810364 437.046112,623.414856 443.825409,627.609558 
	C445.026764,628.352966 447.283966,627.389954 449.053589,627.214905 
	C448.503479,625.400208 448.528595,622.790771 447.305664,621.905640 
	C441.380035,617.616577 435.207520,613.644592 428.943512,609.856140 
	C425.332825,607.672424 423.381897,609.209717 423.908142,614.345581 
M428.347260,709.885315 
	C427.972382,711.586243 427.597504,713.287109 427.222656,714.988037 
	C429.034882,715.041748 431.349792,715.844666 432.574768,715.023010 
	C438.785217,710.856689 444.822357,706.404236 450.638733,701.703735 
	C451.690338,700.853882 451.428680,698.379028 451.773315,696.654297 
	C449.899567,696.654968 447.529694,695.916016 446.237091,696.783081 
	C440.300690,700.765198 434.665314,705.196045 428.347260,709.885315 
M571.245789,604.021240 
	C570.749939,604.006653 570.105469,603.780273 569.780090,604.008667 
	C562.761108,608.935242 555.699097,613.809875 548.896973,619.022949 
	C548.132629,619.608765 548.877808,622.164246 548.922974,623.806396 
	C550.554810,623.733521 552.598389,624.267334 553.749512,623.486084 
	C559.770935,619.399353 565.563354,614.975403 571.441040,610.676331 
	C574.103210,608.729187 574.808105,606.637207 571.245789,604.021240 
M479.965118,733.353699 
	C479.261841,736.590515 478.188995,739.805725 477.998779,743.072449 
	C477.890717,744.927734 479.227570,746.867126 479.913727,748.768677 
	C481.324219,747.461365 483.561188,746.385010 484.002197,744.806824 
	C485.916626,737.955811 487.480743,730.989624 488.743988,723.988037 
	C489.001068,722.563293 487.408875,720.804871 486.669128,719.200195 
	C485.156525,720.401489 482.916687,721.308594 482.286285,722.866760 
	C481.062988,725.890564 480.744110,729.280273 479.965118,733.353699 
M515.847778,600.486023 
	C516.405090,599.884644 517.301025,599.364441 517.467834,598.669373 
	C519.322266,590.942017 521.213013,583.215576 522.675415,575.410400 
	C522.894958,574.238464 520.968140,572.664429 520.034241,571.276367 
	C518.703857,572.480957 516.573669,573.468933 516.178894,574.926758 
	C514.275940,581.955139 512.786133,589.098511 511.265106,596.225647 
	C510.622437,599.237061 511.590515,601.181580 515.847778,600.486023 
M460.912689,720.360474 
	C461.668610,719.268921 462.797516,718.265503 463.082031,717.062378 
	C463.406128,715.691833 462.977020,714.143188 462.875244,712.671936 
	C461.490601,713.133057 459.895447,713.309509 458.779724,714.134399 
	C457.633850,714.981506 456.726440,716.358032 456.123962,717.688171 
	C455.040649,720.080017 450.570740,722.512085 454.428558,725.106628 
	C457.913513,727.450317 458.462585,722.482483 460.912689,720.360474 
M573.907959,678.532349 
	C571.534485,677.859863 569.193298,676.938904 566.773254,676.624634 
	C565.643921,676.477905 564.362061,677.505432 563.149292,678.000793 
	C563.864807,679.272827 564.284058,681.202454 565.355286,681.685059 
	C567.870239,682.818115 570.664124,683.534851 573.411621,683.862427 
	C574.756653,684.022827 576.250061,682.939148 577.676331,682.418457 
	C576.665649,681.213013 575.654968,680.007507 573.907959,678.532349 
M430.631378,637.891968 
	C429.519531,637.614502 428.347961,636.981995 427.312042,637.156189 
	C426.202087,637.342712 424.592926,638.112549 424.356842,638.952454 
	C424.117523,639.803894 425.045868,641.691589 425.887573,642.013062 
	C429.086151,643.234558 432.422882,644.183472 435.786224,644.822815 
	C436.646912,644.986389 438.421814,643.794983 438.634857,642.941101 
	C438.848755,642.083984 437.892761,640.408081 436.996063,639.914246 
	C435.309174,638.985352 433.296143,638.648682 430.631378,637.891968 
M508.896515,733.519958 
	C508.554230,731.248047 508.414093,728.915222 507.757782,726.738037 
	C507.533997,725.995667 506.022308,725.271179 505.079803,725.245544 
	C504.448151,725.228271 503.206573,726.474304 503.227081,727.123779 
	C503.346283,730.896851 503.664795,734.673401 504.168243,738.414795 
	C504.248383,739.010437 505.617493,739.846802 506.367706,739.823792 
	C507.147705,739.799866 508.312012,739.017700 508.571228,738.300720 
	C509.000183,737.114197 508.838043,735.714050 508.896515,733.519958 
M495.427307,581.052429 
	C494.472046,581.550232 492.679932,582.070862 492.692810,582.542175 
	C492.804260,586.625305 493.156403,590.710632 493.687592,594.762390 
	C493.752563,595.257690 495.353485,595.952881 496.138031,595.838379 
	C496.906372,595.726318 498.192657,594.624146 498.131287,594.083801 
	C497.644287,589.796387 496.889923,585.539429 495.427307,581.052429 
M547.903442,596.878113 
	C546.675232,596.476440 544.642273,595.414856 544.345398,595.776855 
	C541.843872,598.827332 539.558594,602.075439 537.478943,605.431824 
	C537.125793,606.001709 537.791443,607.825928 538.485962,608.247253 
	C539.185181,608.671387 541.041626,608.449951 541.467346,607.852844 
	C543.821899,604.550598 545.894287,601.047241 547.903442,596.878113 
M451.603546,598.051331 
	C450.880554,599.122742 449.305420,600.801819 449.568207,601.170349 
	C451.861481,604.386414 454.415649,607.429871 457.081055,610.352478 
	C457.484100,610.794434 459.283325,610.706604 459.685638,610.229980 
	C460.278503,609.527466 460.735321,607.832397 460.313690,607.295471 
	C457.801605,604.096802 455.020203,601.109497 451.603546,598.051331 
M546.249268,712.094604 
	C544.716919,711.614136 543.184570,711.133667 541.652222,710.653259 
	C541.837219,712.289917 541.556274,714.195190 542.310669,715.503601 
	C543.614380,717.764771 545.419739,719.801025 547.308167,721.628296 
	C548.042969,722.339233 549.573059,722.228333 550.740967,722.491821 
	C550.900513,721.186951 551.614990,719.584656 551.107361,718.637329 
	C549.952576,716.482605 548.197571,714.649536 546.249268,712.094604 
M575.716492,633.777283 
	C573.064209,632.100220 562.534485,634.609375 561.895081,637.337158 
	C561.683105,638.241699 563.888184,640.700928 564.155640,640.581665 
	C568.171509,638.791382 573.580139,639.543091 575.716492,633.777283 
M435.917114,685.431580 
	C436.885071,684.013123 437.853027,682.594666 438.821014,681.176208 
	C437.203491,680.998230 435.497803,680.411133 433.988647,680.736267 
	C431.607239,681.249207 429.218933,682.134216 427.114929,683.349121 
	C426.158630,683.901184 425.875610,685.619385 425.287170,686.808655 
	C426.420380,687.210083 427.647339,688.105347 428.667572,687.911682 
	C430.897461,687.488403 433.022339,686.511902 435.917114,685.431580 
z"/>
<path fill="#8BD8BC" opacity="1.000000" stroke="none" 
	d="
M414.215576,812.353333 
	C402.117096,816.606018 390.707245,816.080200 379.530457,810.378540 
	C378.191498,809.695557 375.970428,809.748718 374.551697,810.365662 
	C355.848053,818.497559 338.203827,816.577515 321.663849,804.857239 
	C319.516998,803.335938 318.178253,803.350952 315.957642,804.412048 
	C294.206268,814.805664 270.195618,799.044312 271.035645,775.013672 
	C271.529358,760.889832 282.739929,748.304565 297.424561,746.124329 
	C302.447723,745.378479 305.295197,743.517151 307.835297,738.843689 
	C323.931152,709.229431 363.400635,703.242310 388.051941,726.224976 
	C389.350616,727.435791 391.773499,728.189514 393.560181,728.013123 
	C412.927795,726.101379 430.798431,735.724792 438.812347,752.629822 
	C446.867371,769.621643 443.412323,789.860413 429.573639,802.592102 
	C425.271759,806.549805 419.610901,809.030396 414.215576,812.353333 
z"/>
<path fill="#8BD8BC" opacity="1.000000" stroke="none" 
	d="
M513.536133,880.211914 
	C494.531647,888.289917 476.817688,886.897095 460.330383,874.857971 
	C457.789307,873.002502 456.032837,873.590149 453.621704,874.734924 
	C436.948395,882.651550 416.413544,874.113586 411.124573,856.456909 
	C404.560791,834.544495 420.189087,816.456055 438.871613,815.947388 
	C442.230042,815.856018 443.372314,814.253662 444.689056,811.729248 
	C454.756836,792.427917 470.763031,782.258972 492.518066,782.223328 
	C504.874451,782.203003 516.020874,786.779907 525.248230,795.100830 
	C528.039490,797.617920 530.681335,798.227783 534.190857,798.065918 
	C553.063599,797.195190 567.565369,804.754517 576.620239,821.465759 
	C585.473206,837.804260 582.276245,858.262573 569.328796,871.848999 
	C556.992493,884.794006 537.086304,888.613647 520.016846,881.432373 
	C518.124634,880.636353 515.954285,880.501526 513.536133,880.211914 
z"/>
<path fill="#263767" opacity="1.000000" stroke="none" 
	d="
M1679.709229,730.963928 
	C1679.709106,734.753784 1679.709106,738.049927 1679.709106,741.607361 
	C1670.625244,741.607361 1662.027588,741.607361 1652.806641,741.607361 
	C1652.806641,739.713257 1652.825195,737.779541 1652.803833,735.846191 
	C1652.577393,715.361328 1652.623535,694.867798 1651.979858,674.395996 
	C1651.714111,665.941162 1648.853394,657.909668 1639.637207,655.141235 
	C1629.768433,652.176880 1620.411011,653.696655 1612.963501,661.476562 
	C1611.692017,662.804749 1611.057861,665.259583 1611.046997,667.199158 
	C1610.918091,690.027344 1610.964355,712.856445 1610.964233,735.685364 
	C1610.964233,737.508423 1610.964111,739.331482 1610.964111,741.518677 
	C1602.034302,741.518677 1593.318115,741.518677 1584.306152,741.518677 
	C1584.306152,705.627808 1584.306152,669.749390 1584.306152,633.636230 
	C1591.791504,633.636230 1599.077148,633.636230 1606.822632,633.636230 
	C1607.237427,636.120605 1607.666626,638.691528 1608.142090,641.539551 
	C1629.876099,629.333984 1651.036865,625.553955 1670.968506,645.827393 
	C1672.821167,644.201782 1674.833618,641.995605 1677.245972,640.390320 
	C1693.268921,629.728088 1710.367554,628.631409 1727.527222,636.626953 
	C1739.699829,642.298767 1744.929077,653.694214 1746.890137,666.376404 
	C1747.977783,673.411133 1748.147339,680.630310 1748.217896,687.771301 
	C1748.393555,705.583435 1748.275757,723.398438 1748.275757,741.548218 
	C1739.285522,741.548218 1730.598755,741.548218 1721.376099,741.548218 
	C1721.376099,739.592163 1721.376099,737.800232 1721.376099,736.008362 
	C1721.375977,719.344910 1721.474365,702.680603 1721.318237,686.018616 
	C1721.268555,680.714722 1720.986938,675.335388 1720.031738,670.133850 
	C1718.061890,659.406250 1712.378540,654.342163 1702.821411,653.965271 
	C1691.527466,653.519714 1684.199829,658.283875 1681.441406,668.670959 
	C1680.220337,673.269043 1679.847168,678.194397 1679.787476,682.979919 
	C1679.589966,698.807861 1679.710571,714.639832 1679.709229,730.963928 
z"/>
<path fill="#8BD8BC" opacity="1.000000" stroke="none" 
	d="
M489.246124,605.047119 
	C519.686401,599.437500 545.157654,617.873535 554.071289,641.929077 
	C566.067383,674.303589 544.128113,711.428589 510.022675,717.251709 
	C476.554932,722.966064 442.231476,697.501160 443.250641,659.230042 
	C443.911469,634.416077 460.336884,611.650818 489.246124,605.047119 
z"/>
<path fill="#8CD8BC" opacity="1.000000" stroke="none" 
	d="
M261.835754,876.816345 
	C267.064789,872.359497 272.570740,869.855652 279.299530,869.617310 
	C281.209625,869.549622 283.658630,867.050842 284.776917,865.058777 
	C293.987488,848.651550 307.878052,840.063049 326.649445,840.172058 
	C337.112396,840.232727 346.566467,844.148254 354.327484,851.190369 
	C357.164703,853.764771 359.919006,854.136292 363.328186,854.001465 
	C380.415436,853.325562 392.809570,860.908081 400.405426,876.023376 
	C407.286774,889.716797 404.394348,906.800171 393.869507,917.691345 
	C382.337677,929.624512 365.868896,933.228638 351.392609,926.592468 
	C347.866058,924.975891 345.124878,925.162292 341.545227,926.478943 
	C326.553009,931.993408 312.117889,930.684631 298.968750,921.193848 
	C296.538605,919.439880 294.982971,919.465515 292.394928,920.596924 
	C279.593689,926.193359 266.191101,922.624084 258.619110,911.898682 
	C251.170349,901.347839 252.361557,887.331726 261.835754,876.816345 
z"/>
<path fill="#253666" opacity="1.000000" stroke="none" 
	d="
M722.955322,736.990234 
	C721.642090,736.265137 720.664734,735.705566 719.245850,734.893188 
	C719.033569,737.314880 718.866150,739.225891 718.666382,741.505371 
	C710.518677,741.505371 702.438599,741.505371 693.919189,741.505371 
	C693.919189,687.665771 693.919189,633.657654 693.919189,579.410034 
	C702.614380,579.410034 711.206787,579.410034 720.369507,579.410034 
	C720.369507,599.743347 720.369507,619.976074 720.369507,640.243103 
	C726.653870,637.703613 732.245178,634.595703 738.236633,633.169495 
	C764.511108,626.915161 786.571228,639.454590 795.192688,665.098328 
	C800.123962,679.765686 800.238037,694.591431 795.677063,709.301147 
	C785.771790,741.247070 753.570862,753.553345 722.955322,736.990234 
M726.285828,713.164246 
	C739.242310,727.379578 760.459656,724.484741 767.651367,707.053650 
	C773.060120,693.944153 773.003540,680.364197 767.003174,667.319641 
	C763.087158,658.806580 756.269653,654.086365 746.556274,653.904236 
	C736.319763,653.712402 727.887268,657.340088 723.670959,666.794922 
	C716.798950,682.204895 716.784607,697.718567 726.285828,713.164246 
z"/>
<path fill="#263867" opacity="1.000000" stroke="none" 
	d="
M1081.928711,657.116699 
	C1086.379395,667.756104 1086.874268,678.368958 1085.355713,689.314392 
	C1084.823853,693.148315 1083.182251,693.687317 1079.852661,693.664978 
	C1060.202148,693.532898 1040.550049,693.599915 1020.898560,693.599915 
	C1019.091064,693.599915 1017.283630,693.599976 1015.513916,693.599976 
	C1014.539551,703.541565 1022.316284,714.830627 1033.114624,719.021973 
	C1046.884766,724.366882 1060.247070,721.808105 1073.370117,716.401550 
	C1074.444702,715.958862 1075.483398,715.429626 1076.540771,714.944763 
	C1077.561157,714.476929 1078.583984,714.014526 1080.152222,713.300964 
	C1080.589844,720.972839 1081.004639,728.247131 1081.433350,735.763916 
	C1066.351318,743.092529 1050.683350,745.457581 1034.263794,743.225891 
	C1011.621338,740.148438 995.858398,728.024292 989.475769,706.093872 
	C982.820923,683.228210 986.000916,661.649292 1004.106812,644.459717 
	C1021.580811,627.869934 1054.008911,626.989441 1071.118530,642.524719 
	C1075.431396,646.440735 1078.278564,651.971069 1081.928711,657.116699 
M1015.920959,674.808838 
	C1030.138428,674.808838 1044.355835,674.808838 1058.568970,674.808838 
	C1058.885010,662.026123 1051.047729,653.823975 1038.739258,653.933594 
	C1026.814697,654.039795 1018.569763,661.188904 1015.920959,674.808838 
z"/>
<path fill="#263867" opacity="1.000000" stroke="none" 
	d="
M1447.588135,647.438965 
	C1457.232788,660.819153 1460.365479,679.086975 1455.468628,693.692627 
	C1432.549438,693.692627 1409.468384,693.692627 1386.334351,693.692627 
	C1388.827393,713.044373 1404.016724,724.342957 1424.549683,721.499939 
	C1433.627930,720.242859 1442.437256,717.043701 1451.670776,714.647705 
	C1452.037964,720.390808 1452.552368,727.087891 1452.797974,733.794800 
	C1452.833252,734.759949 1451.801880,736.249695 1450.878296,736.693115 
	C1430.403687,746.523560 1397.356689,747.764526 1377.770996,731.870972 
	C1350.740112,709.935730 1351.607910,661.885437 1379.441284,641.040710 
	C1396.107910,628.558777 1431.739990,626.919983 1447.588135,647.438965 
M1428.459595,665.356384 
	C1423.920166,656.010498 1417.257202,652.603027 1406.479980,654.116028 
	C1396.472412,655.520996 1388.810669,663.684204 1387.181763,674.774963 
	C1401.488647,674.774963 1415.775024,674.774963 1430.600830,674.774963 
	C1429.931396,671.549438 1429.363892,668.814514 1428.459595,665.356384 
z"/>
<path fill="#253766" opacity="1.000000" stroke="none" 
	d="
M1075.199219,871.128418 
	C1073.239258,871.128479 1071.754150,871.128479 1070.279785,871.128479 
	C1069.848633,884.593445 1081.531128,897.035645 1096.203735,899.022095 
	C1109.906372,900.877197 1122.584839,897.596313 1135.192749,890.798889 
	C1135.595581,898.030090 1136.083984,904.801636 1136.233276,911.580688 
	C1136.256226,912.624939 1134.945068,914.233887 1133.872803,914.687561 
	C1114.085693,923.059326 1093.685913,925.174805 1073.685669,916.715149 
	C1051.234863,907.218933 1042.030029,888.416504 1041.660889,864.816284 
	C1041.451904,851.454529 1044.960449,839.090393 1053.226318,828.418701 
	C1067.862793,809.521851 1097.788940,803.393555 1118.826904,814.941833 
	C1132.716187,822.566040 1139.344482,834.995605 1140.863159,850.255432 
	C1141.529175,856.948181 1140.975098,863.762329 1140.975098,871.128418 
	C1118.221313,871.128418 1096.947632,871.128418 1075.199219,871.128418 
M1084.291626,833.434143 
	C1076.209473,837.369446 1072.261353,844.135681 1070.424316,852.763367 
	C1085.289307,852.763367 1099.529541,852.763367 1113.769165,852.763367 
	C1113.620728,836.102112 1101.800537,828.120972 1084.291626,833.434143 
z"/>
<path fill="#253766" opacity="1.000000" stroke="none" 
	d="
M830.577026,890.802979 
	C830.003479,877.724915 836.087708,868.739380 846.403381,862.316345 
	C857.967957,855.115662 870.940002,852.354675 884.283020,850.958252 
	C886.411621,850.735474 888.546082,850.568176 890.616699,850.380737 
	C891.709900,840.251526 886.343750,833.835876 876.533447,832.939270 
	C866.470337,832.019470 857.030701,834.211243 847.904297,838.230103 
	C846.116455,839.017273 844.321838,839.789062 842.233093,840.697266 
	C841.483154,834.259460 840.638367,828.328796 840.210388,822.368225 
	C840.108459,820.948853 841.008118,818.602539 842.109497,818.080566 
	C857.339294,810.864197 873.366211,807.427551 890.107666,810.529297 
	C907.128601,813.682739 916.945068,825.575500 917.913025,844.055359 
	C918.644165,858.014282 918.445557,872.021851 918.669983,886.007568 
	C918.691345,887.339233 918.753357,888.671509 918.838989,890.000793 
	C919.345947,897.871033 920.487305,899.014404 928.408325,899.614868 
	C929.213196,899.675903 930.020020,899.711060 931.393555,899.791443 
	C930.633545,907.115906 929.902466,914.162415 929.130981,921.597534 
	C915.980652,922.310364 903.498108,922.270264 895.056824,909.469482 
	C887.190125,916.852722 877.853821,920.154785 867.555908,921.405029 
	C846.866150,923.916931 832.275635,912.093079 830.577026,890.802979 
M879.822266,870.151733 
	C874.208801,872.856262 868.220947,874.999939 863.088440,878.425171 
	C858.100281,881.754211 858.070068,887.513428 859.303711,892.931274 
	C860.339417,897.479309 863.695435,899.868896 868.118286,900.644409 
	C876.308167,902.080383 883.539185,899.702454 889.943359,894.629028 
	C890.756531,893.984863 891.570374,892.757202 891.587646,891.785645 
	C891.722534,884.223328 891.662231,876.657410 891.662231,868.510254 
	C887.490417,869.081726 884.073792,869.549683 879.822266,870.151733 
z"/>
<path fill="#253766" opacity="1.000000" stroke="none" 
	d="
M1487.094238,659.904785 
	C1484.622803,660.948120 1482.514404,661.867249 1479.815552,663.043701 
	C1479.009277,655.675476 1478.238159,648.628235 1477.435913,641.296143 
	C1494.541992,633.093384 1512.140991,629.116211 1530.739380,633.515137 
	C1545.474487,637.000244 1553.078857,647.648254 1554.845093,662.018372 
	C1556.117798,672.373108 1555.747803,682.933105 1556.040405,693.403564 
	C1556.221802,699.892395 1555.946899,706.411011 1556.465698,712.868958 
	C1557.079834,720.513794 1558.530029,721.587097 1566.080811,721.916138 
	C1566.889038,721.951355 1567.697266,721.988770 1569.039551,722.049255 
	C1568.278809,729.290466 1567.538574,736.335693 1566.800537,743.360229 
	C1550.739990,745.250488 1541.550293,743.612488 1532.473267,732.043762 
	C1520.895020,741.936768 1507.522705,745.780579 1492.583984,743.136047 
	C1480.936768,741.074097 1473.064575,734.023193 1469.736084,722.654602 
	C1466.307739,710.944763 1467.421387,699.858215 1476.468994,690.677002 
	C1485.636963,681.373474 1497.473022,677.535645 1509.826416,675.064270 
	C1515.996216,673.829956 1522.297852,673.254028 1528.553589,672.378357 
	C1528.951050,661.805847 1523.688599,655.856812 1513.205322,655.077942 
	C1504.211914,654.409790 1495.678101,656.231934 1487.094238,659.904785 
M1496.288940,708.977295 
	C1496.447266,719.525330 1500.496704,724.017700 1510.861450,723.053040 
	C1516.234619,722.552979 1521.432251,719.733948 1526.586182,717.656982 
	C1527.699707,717.208313 1528.969238,715.466797 1529.002075,714.288330 
	C1529.217407,706.557678 1529.113037,698.818115 1529.113037,689.674744 
	C1520.991577,692.051514 1513.712158,693.673523 1506.847778,696.357361 
	C1501.688721,698.374512 1497.480225,702.116028 1496.288940,708.977295 
z"/>
<path fill="#263767" opacity="1.000000" stroke="none" 
	d="
M872.294312,693.866455 
	C872.270996,673.596069 872.270996,653.808411 872.270996,633.712219 
	C881.219116,633.712219 889.806274,633.712219 899.125610,633.712219 
	C899.125610,635.471619 899.125671,637.219299 899.125671,638.966980 
	C899.125854,655.793030 899.072937,672.619446 899.163940,689.445007 
	C899.186401,693.596069 899.462158,697.772095 899.989197,701.889587 
	C902.307312,719.997437 920.305969,727.727966 935.484009,717.276550 
	C939.289856,714.655823 941.196777,711.675720 941.132996,706.640991 
	C940.827148,682.496399 940.995605,658.345764 940.995605,633.799561 
	C949.899292,633.799561 958.603210,633.799561 967.630554,633.799561 
	C967.630554,669.661804 967.630554,705.523071 967.630554,741.635498 
	C959.395020,741.635498 951.318909,741.635498 943.065674,741.635498 
	C942.714355,739.782166 942.378967,738.012756 942.241028,737.285095 
	C934.632507,739.527039 927.195251,743.216309 919.555420,743.699097 
	C892.666809,745.398254 875.666504,730.171265 873.012268,703.316833 
	C872.717468,700.333862 872.546204,697.338623 872.294312,693.866455 
z"/>
<path fill="#293B69" opacity="1.000000" stroke="none" 
	d="
M645.422363,637.000244 
	C645.422363,728.817993 645.439026,820.135742 645.368286,911.453369 
	C645.365112,915.572449 644.917542,919.767578 644.029602,923.784180 
	C643.372681,926.755920 642.239136,929.961426 638.054382,930.039673 
	C633.567749,930.123474 632.584473,926.694397 631.714355,923.568787 
	C630.877441,920.562378 630.404175,917.351868 630.402344,914.230591 
	C630.338196,805.082642 630.334351,695.934692 630.415100,586.786743 
	C630.417664,583.348267 631.093994,579.824707 632.022339,576.498779 
	C632.812622,573.667603 634.253174,570.067932 637.961060,571.206482 
	C640.316040,571.929565 642.936035,574.432861 643.800049,576.748718 
	C645.095398,580.220398 645.322083,584.225098 645.357483,588.009216 
	C645.508362,604.171692 645.422241,620.336365 645.422363,637.000244 
z"/>
<path fill="#253767" opacity="1.000000" stroke="none" 
	d="
M1100.005859,665.778564 
	C1099.715088,647.312988 1110.294434,635.138428 1129.177246,632.168091 
	C1143.152222,629.969910 1156.673584,631.632385 1169.611450,637.669312 
	C1172.378662,638.960571 1173.736450,640.218994 1173.207764,643.595642 
	C1172.262329,649.636169 1171.890015,655.766479 1171.230347,662.335205 
	C1166.691406,659.796143 1162.777710,657.389709 1158.677368,655.361145 
	C1151.519287,651.820007 1143.937012,650.142029 1135.943115,651.450439 
	C1131.019531,652.256348 1127.083984,654.533691 1126.080078,659.937622 
	C1125.107666,665.171509 1127.200562,669.282654 1132.762939,672.009705 
	C1139.168335,675.150085 1145.803711,677.820129 1152.321411,680.734070 
	C1155.049438,681.953674 1157.789429,683.166931 1160.425293,684.568665 
	C1173.852661,691.709106 1179.535767,702.034119 1177.743286,715.869202 
	C1176.022095,729.154907 1167.616821,738.462585 1153.588623,741.821411 
	C1135.878662,746.061646 1118.612061,744.268188 1101.784546,737.313721 
	C1099.146484,736.223511 1098.776489,734.764099 1099.067993,732.372925 
	C1099.812988,726.264099 1100.439941,720.140930 1101.188965,713.343872 
	C1104.033081,714.712463 1106.617920,715.946533 1109.194702,717.197876 
	C1119.242065,722.076721 1129.601929,725.259827 1140.966797,723.200745 
	C1145.670532,722.348572 1149.627075,720.581604 1150.786987,715.367126 
	C1151.904175,710.345154 1149.950073,705.649841 1144.788696,702.812439 
	C1140.008179,700.184265 1134.800293,698.344299 1129.840332,696.029053 
	C1124.430908,693.503906 1118.885986,691.176147 1113.766235,688.144165 
	C1105.546753,683.276428 1100.744629,675.958557 1100.005859,665.778564 
z"/>
<path fill="#263867" opacity="1.000000" stroke="none" 
	d="
M992.801514,860.665344 
	C998.302429,845.109009 1003.750916,829.951843 1008.996338,814.724731 
	C1009.970886,811.895630 1011.361816,810.951782 1014.327454,811.041382 
	C1021.605225,811.260986 1028.894165,811.113220 1036.797241,811.113220 
	C1032.338623,822.809692 1028.112061,833.963318 1023.837158,845.098389 
	C1014.910522,868.349609 1005.849487,891.550293 997.125549,914.877197 
	C995.692322,918.709412 993.864075,919.981934 989.921082,919.685791 
	C985.119629,919.325134 980.259033,919.784668 975.448975,919.486633 
	C974.005310,919.397278 971.824890,918.279785 971.366028,917.096497 
	C957.856506,882.264954 944.521118,847.365906 931.177856,812.470032 
	C931.075378,812.202148 931.245850,811.830017 931.341125,811.114990 
	C939.072388,811.114990 946.862183,810.946533 954.630188,811.282227 
	C955.912170,811.337708 957.697021,813.384766 958.239624,814.878296 
	C966.233398,836.883362 974.055603,858.950806 981.920837,881.002563 
	C982.366028,882.250977 982.830322,883.492554 983.692322,885.848694 
	C986.902527,876.986816 989.790771,869.013611 992.801514,860.665344 
z"/>
<path fill="#253767" opacity="1.000000" stroke="none" 
	d="
M1276.503174,733.097046 
	C1277.444092,736.409363 1276.466309,738.032349 1273.537720,739.105347 
	C1256.492798,745.350647 1239.184814,746.453491 1222.288330,739.660950 
	C1202.081421,731.537659 1192.270264,715.205566 1190.122925,694.059082 
	C1189.104004,684.024292 1190.247314,674.119263 1193.977295,664.612610 
	C1203.297852,640.858032 1224.738892,629.504211 1252.400146,631.582764 
	C1259.086914,632.085266 1265.640747,634.489441 1272.227905,636.130493 
	C1275.355469,636.909668 1276.767944,638.647766 1276.170654,642.279053 
	C1275.258789,647.824463 1274.996216,653.476746 1274.510010,658.541199 
	C1266.655029,656.967651 1259.143799,654.436951 1251.543701,654.134033 
	C1229.305908,653.247559 1215.365601,668.725403 1217.493774,690.942871 
	C1219.696167,713.935181 1237.861328,726.504578 1260.411865,720.445435 
	C1265.168213,719.167419 1269.716064,717.113586 1274.629639,715.318726 
	C1275.237183,721.170654 1275.834106,726.921082 1276.503174,733.097046 
z"/>
<path fill="#253766" opacity="1.000000" stroke="none" 
	d="
M699.997314,849.003296 
	C699.997314,843.550171 699.997314,838.596130 699.997314,833.188477 
	C694.774353,833.188477 690.019348,833.188477 684.678040,833.188477 
	C685.481079,825.617676 686.228943,818.566589 687.018311,811.124512 
	C691.344360,811.124512 695.446411,811.124512 699.891846,811.124512 
	C699.891846,803.108337 699.891846,795.498962 699.891846,787.412903 
	C708.888062,786.458862 717.583435,785.536743 726.799316,784.559448 
	C726.799316,793.421936 726.799316,801.992554 726.799316,810.958374 
	C734.872437,810.958374 742.466187,810.958374 750.443115,810.958374 
	C750.443115,818.404358 750.443115,825.457825 750.443115,832.970276 
	C742.892822,832.970276 735.311340,832.970276 727.452454,832.970276 
	C727.246887,834.463684 726.966919,835.552002 726.966797,836.640320 
	C726.965515,853.305603 726.920349,869.971619 727.056702,886.635986 
	C727.143005,897.183105 728.773987,898.831177 739.088928,899.362122 
	C742.723816,899.549255 746.376465,899.392029 750.695557,899.392029 
	C749.875061,907.185364 749.122131,914.336792 748.418030,921.024719 
	C739.065918,921.024719 730.192871,921.819763 721.522156,920.834717 
	C709.107971,919.424377 700.247803,907.847168 700.061157,893.998657 
	C699.861328,879.169006 700.004089,864.334656 699.997314,849.003296 
z"/>
<path fill="#273968" opacity="1.000000" stroke="none" 
	d="
M817.417847,694.999878 
	C817.417969,656.243713 817.417969,617.987610 817.417969,579.448853 
	C826.494263,579.448853 835.080444,579.448853 844.320190,579.448853 
	C844.320190,581.349731 844.320190,583.287292 844.320190,585.224854 
	C844.320251,623.851257 844.307129,662.477600 844.340942,701.104004 
	C844.344238,704.927246 844.497192,708.761780 844.820251,712.570801 
	C845.434204,719.808411 846.799561,721.116577 853.875427,721.808044 
	C854.849609,721.903259 855.823303,722.004028 857.287354,722.151611 
	C856.531311,729.379578 855.791016,736.457397 854.961426,744.388672 
	C848.566467,743.903870 842.228333,743.995850 836.130310,742.830933 
	C826.268738,740.946960 818.938904,732.059998 818.025085,720.941895 
	C817.331360,712.501587 817.585449,703.983398 817.417847,694.999878 
z"/>
<path fill="#263867" opacity="1.000000" stroke="none" 
	d="
M1186.646729,863.000122 
	C1186.716064,871.821716 1186.620361,880.148865 1186.899414,888.463440 
	C1187.206787,897.620605 1188.167847,898.472229 1197.241089,899.504089 
	C1197.876587,899.576355 1198.497437,899.778137 1199.490234,900.001953 
	C1198.731323,907.198853 1197.986694,914.261658 1197.137085,922.319580 
	C1190.416992,921.680176 1183.907593,921.728882 1177.730225,920.320923 
	C1167.751221,918.046509 1161.037354,909.059021 1160.025879,898.019470 
	C1159.768188,895.207642 1159.758545,892.366516 1159.757446,889.538818 
	C1159.741699,847.257629 1159.746582,804.976501 1159.746460,762.695312 
	C1159.746460,760.891479 1159.746460,759.087646 1159.746460,757.142944 
	C1168.791992,757.142944 1177.416748,757.142944 1186.646729,757.142944 
	C1186.646729,792.359680 1186.646729,827.429871 1186.646729,863.000122 
z"/>
<path fill="#273867" opacity="1.000000" stroke="none" 
	d="
M826.152710,817.510803 
	C825.709473,823.755798 825.297791,829.543579 824.865601,835.619934 
	C816.946045,834.565125 809.376526,834.131042 802.434021,838.394714 
	C797.608154,841.358582 794.828918,844.936157 794.953430,851.273926 
	C795.362427,872.094604 795.107178,892.928284 795.107178,913.756958 
	C795.107178,915.545044 795.107178,917.333191 795.107178,919.359497 
	C786.024536,919.359497 777.430481,919.359497 768.509155,919.359497 
	C768.509155,883.422119 768.509155,847.681519 768.509155,811.525879 
	C776.590820,811.525879 784.783569,811.525879 793.364868,811.525879 
	C793.627441,814.820801 793.888855,818.101379 794.202576,822.037903 
	C803.633057,814.102783 813.267456,807.223267 826.822632,809.532043 
	C826.597229,812.188477 826.390808,814.621033 826.152710,817.510803 
z"/>
<path fill="#263767" opacity="1.000000" stroke="none" 
	d="
M1335.413696,658.003235 
	C1332.484375,659.310486 1329.843872,660.362671 1327.453003,661.823486 
	C1323.497803,664.239990 1321.718994,667.620117 1321.779907,672.589722 
	C1322.038940,693.741516 1321.890015,714.898376 1321.890015,736.053345 
	C1321.890015,737.836548 1321.890015,739.619690 1321.890015,741.640503 
	C1312.779053,741.640503 1304.192505,741.640503 1295.281250,741.640503 
	C1295.281250,705.694885 1295.281250,669.817871 1295.281250,633.670593 
	C1303.434937,633.670593 1311.532471,633.670593 1319.856445,633.670593 
	C1320.183838,637.031616 1320.503540,640.315247 1320.894653,644.331177 
	C1330.366333,636.262695 1339.970947,629.658264 1353.379883,631.767639 
	C1352.762451,640.602234 1352.165161,649.148376 1351.607178,657.132690 
	C1346.003906,657.416199 1340.909302,657.674011 1335.413696,658.003235 
z"/>
<path fill="#90DABF" opacity="1.000000" stroke="none" 
	d="
M475.522827,589.490845 
	C476.858368,592.753052 478.369141,595.592102 479.059204,598.618347 
	C479.411926,600.165100 478.294037,602.047119 477.840820,603.777649 
	C476.033691,603.032166 473.224396,602.773071 472.587006,601.459778 
	C469.196289,594.473938 466.187042,587.284668 463.472015,580.006775 
	C463.009521,578.767029 464.614166,576.756104 465.263855,575.101440 
	C466.896973,575.844238 469.291412,576.148560 470.019592,577.412598 
	C472.154541,581.118774 473.626587,585.206848 475.522827,589.490845 
z"/>
<path fill="#90DABF" opacity="1.000000" stroke="none" 
	d="
M523.378113,727.572388 
	C522.432190,724.867981 521.302795,722.550964 521.046021,720.140930 
	C520.913757,718.899719 522.093750,716.682312 523.118713,716.377136 
	C524.265930,716.035583 526.737244,716.984863 527.203247,718.017517 
	C530.545349,725.422668 533.659363,732.942200 536.453796,740.569092 
	C536.823303,741.577637 534.960022,744.600525 534.157288,744.590393 
	C532.542664,744.569946 530.158264,743.497375 529.485596,742.158508 
	C527.183411,737.576355 525.484985,732.690979 523.378113,727.572388 
z"/>
<path fill="#90DABF" opacity="1.000000" stroke="none" 
	d="
M570.015442,660.819580 
	C567.727234,660.841064 565.762817,661.288269 564.125000,660.747131 
	C562.658264,660.262451 561.551270,658.689148 560.285522,657.596191 
	C561.429688,656.406921 562.500916,654.276428 563.729919,654.181213 
	C571.638855,653.568359 579.581970,653.261230 587.514893,653.239685 
	C588.687805,653.236450 589.866211,655.274902 591.042114,656.368713 
	C589.802246,657.569702 588.666260,659.656982 587.304382,659.816589 
	C581.734253,660.469543 576.095093,660.533997 570.015442,660.819580 
z"/>
<path fill="#90DABF" opacity="1.000000" stroke="none" 
	d="
M560.819458,703.164917 
	C557.739136,701.156982 554.751587,699.589844 552.273193,697.436584 
	C551.255493,696.552368 551.335693,694.404541 550.916443,692.831543 
	C552.655701,692.512207 554.894653,691.338318 556.051575,692.014832 
	C562.631592,695.862183 569.057861,700.004517 575.262939,704.430115 
	C576.338867,705.197632 576.106689,707.799072 576.478760,709.553467 
	C574.838257,709.746643 572.839844,710.632080 571.624268,710.003479 
	C567.958557,708.108093 564.597229,705.624084 560.819458,703.164917 
z"/>
<path fill="#90DABF" opacity="1.000000" stroke="none" 
	d="
M439.465851,663.547913 
	C438.501068,664.475098 437.747437,665.506714 436.930359,665.559692 
	C428.971558,666.075623 421.003357,666.601868 413.034729,666.654907 
	C411.712860,666.663696 410.375946,664.402893 409.045990,663.190857 
	C410.400391,662.104126 411.687500,660.185974 413.120483,660.069946 
	C420.569763,659.466919 428.056396,659.328369 435.529602,659.016846 
	C438.456451,658.894836 439.894257,660.209534 439.465851,663.547913 
z"/>
<path fill="#90DABF" opacity="1.000000" stroke="none" 
	d="
M423.707123,614.027100 
	C423.381897,609.209717 425.332825,607.672424 428.943512,609.856140 
	C435.207520,613.644592 441.380035,617.616577 447.305664,621.905640 
	C448.528595,622.790771 448.503479,625.400208 449.053589,627.214905 
	C447.283966,627.389954 445.026764,628.352966 443.825409,627.609558 
	C437.046112,623.414856 430.520325,618.810364 423.707123,614.027100 
z"/>
<path fill="#90DABF" opacity="1.000000" stroke="none" 
	d="
M428.634583,709.675659 
	C434.665314,705.196045 440.300690,700.765198 446.237091,696.783081 
	C447.529694,695.916016 449.899567,696.654968 451.773315,696.654297 
	C451.428680,698.379028 451.690338,700.853882 450.638733,701.703735 
	C444.822357,706.404236 438.785217,710.856689 432.574768,715.023010 
	C431.349792,715.844666 429.034882,715.041748 427.222656,714.988037 
	C427.597504,713.287109 427.972382,711.586243 428.634583,709.675659 
z"/>
<path fill="#90DABF" opacity="1.000000" stroke="none" 
	d="
M571.608032,604.133301 
	C574.808105,606.637207 574.103210,608.729187 571.441040,610.676331 
	C565.563354,614.975403 559.770935,619.399353 553.749512,623.486084 
	C552.598389,624.267334 550.554810,623.733521 548.922974,623.806396 
	C548.877808,622.164246 548.132629,619.608765 548.896973,619.022949 
	C555.699097,613.809875 562.761108,608.935242 569.780090,604.008667 
	C570.105469,603.780273 570.749939,604.006653 571.608032,604.133301 
z"/>
<path fill="#90DABF" opacity="1.000000" stroke="none" 
	d="
M480.007812,732.936035 
	C480.744110,729.280273 481.062988,725.890564 482.286285,722.866760 
	C482.916687,721.308594 485.156525,720.401489 486.669128,719.200195 
	C487.408875,720.804871 489.001068,722.563293 488.743988,723.988037 
	C487.480743,730.989624 485.916626,737.955811 484.002197,744.806824 
	C483.561188,746.385010 481.324219,747.461365 479.913757,748.768677 
	C479.227570,746.867126 477.890717,744.927734 477.998779,743.072449 
	C478.188995,739.805725 479.261841,736.590515 480.007812,732.936035 
z"/>
<path fill="#90DABF" opacity="1.000000" stroke="none" 
	d="
M515.489990,600.644409 
	C511.590515,601.181580 510.622437,599.237061 511.265106,596.225647 
	C512.786133,589.098511 514.275940,581.955139 516.178894,574.926758 
	C516.573669,573.468933 518.703857,572.480957 520.034241,571.276367 
	C520.968140,572.664429 522.894958,574.238464 522.675415,575.410400 
	C521.213013,583.215576 519.322266,590.942017 517.467834,598.669373 
	C517.301025,599.364441 516.405090,599.884644 515.489990,600.644409 
z"/>
<path fill="#90DABF" opacity="1.000000" stroke="none" 
	d="
M460.672791,720.638245 
	C458.462585,722.482483 457.913513,727.450317 454.428558,725.106628 
	C450.570740,722.512085 455.040649,720.080017 456.123962,717.688171 
	C456.726440,716.358032 457.633850,714.981506 458.779724,714.134399 
	C459.895447,713.309509 461.490601,713.133057 462.875244,712.671936 
	C462.977020,714.143188 463.406128,715.691833 463.082031,717.062378 
	C462.797516,718.265503 461.668610,719.268921 460.672791,720.638245 
z"/>
<path fill="#90DABF" opacity="1.000000" stroke="none" 
	d="
M574.276123,678.667236 
	C575.654968,680.007507 576.665649,681.213013 577.676331,682.418457 
	C576.250061,682.939148 574.756653,684.022827 573.411621,683.862427 
	C570.664124,683.534851 567.870239,682.818115 565.355286,681.685059 
	C564.284058,681.202454 563.864807,679.272827 563.149292,678.000793 
	C564.362061,677.505432 565.643921,676.477905 566.773254,676.624634 
	C569.193298,676.938904 571.534485,677.859863 574.276123,678.667236 
z"/>
<path fill="#90DABF" opacity="1.000000" stroke="none" 
	d="
M431.025024,637.978882 
	C433.296143,638.648682 435.309174,638.985352 436.996063,639.914246 
	C437.892761,640.408081 438.848755,642.083984 438.634857,642.941101 
	C438.421814,643.794983 436.646912,644.986389 435.786224,644.822815 
	C432.422882,644.183472 429.086151,643.234558 425.887573,642.013062 
	C425.045868,641.691589 424.117523,639.803894 424.356842,638.952454 
	C424.592926,638.112549 426.202087,637.342712 427.312042,637.156189 
	C428.347961,636.981995 429.519531,637.614502 431.025024,637.978882 
z"/>
<path fill="#90DABF" opacity="1.000000" stroke="none" 
	d="
M508.910736,733.961914 
	C508.838043,735.714050 509.000183,737.114197 508.571228,738.300720 
	C508.312012,739.017700 507.147705,739.799866 506.367706,739.823792 
	C505.617493,739.846802 504.248383,739.010437 504.168243,738.414795 
	C503.664795,734.673401 503.346283,730.896851 503.227081,727.123779 
	C503.206573,726.474304 504.448151,725.228271 505.079803,725.245544 
	C506.022308,725.271179 507.533997,725.995667 507.757782,726.738037 
	C508.414093,728.915222 508.554230,731.248047 508.910736,733.961914 
z"/>
<path fill="#90DABF" opacity="1.000000" stroke="none" 
	d="
M495.822479,581.162720 
	C496.889923,585.539429 497.644287,589.796387 498.131287,594.083801 
	C498.192657,594.624146 496.906372,595.726318 496.138031,595.838379 
	C495.353485,595.952881 493.752563,595.257690 493.687592,594.762390 
	C493.156403,590.710632 492.804260,586.625305 492.692810,582.542175 
	C492.679932,582.070862 494.472046,581.550232 495.822479,581.162720 
z"/>
<path fill="#90DABF" opacity="1.000000" stroke="none" 
	d="
M547.983398,597.245483 
	C545.894287,601.047241 543.821899,604.550598 541.467346,607.852844 
	C541.041626,608.449951 539.185181,608.671387 538.485962,608.247253 
	C537.791443,607.825928 537.125793,606.001709 537.478943,605.431824 
	C539.558594,602.075439 541.843872,598.827332 544.345398,595.776855 
	C544.642273,595.414856 546.675232,596.476440 547.983398,597.245483 
z"/>
<path fill="#90DABF" opacity="1.000000" stroke="none" 
	d="
M451.966370,598.051270 
	C455.020203,601.109497 457.801605,604.096802 460.313690,607.295471 
	C460.735321,607.832397 460.278503,609.527466 459.685638,610.229980 
	C459.283325,610.706604 457.484100,610.794434 457.081055,610.352478 
	C454.415649,607.429871 451.861481,604.386414 449.568207,601.170349 
	C449.305420,600.801819 450.880554,599.122742 451.966370,598.051270 
z"/>
<path fill="#90DABF" opacity="1.000000" stroke="none" 
	d="
M546.467896,712.390198 
	C548.197571,714.649536 549.952576,716.482605 551.107361,718.637329 
	C551.614990,719.584656 550.900513,721.186951 550.740967,722.491821 
	C549.573059,722.228333 548.042969,722.339233 547.308167,721.628296 
	C545.419739,719.801025 543.614380,717.764771 542.310669,715.503601 
	C541.556274,714.195190 541.837219,712.289917 541.652222,710.653259 
	C543.184570,711.133667 544.716919,711.614136 546.467896,712.390198 
z"/>
<path fill="#90DABF" opacity="1.000000" stroke="none" 
	d="
M575.794067,634.138184 
	C573.580139,639.543091 568.171509,638.791382 564.155640,640.581665 
	C563.888184,640.700928 561.683105,638.241699 561.895081,637.337158 
	C562.534485,634.609375 573.064209,632.100220 575.794067,634.138184 
z"/>
<path fill="#90DABF" opacity="1.000000" stroke="none" 
	d="
M435.553619,685.596558 
	C433.022339,686.511902 430.897461,687.488403 428.667572,687.911682 
	C427.647339,688.105347 426.420380,687.210083 425.287170,686.808655 
	C425.875610,685.619385 426.158630,683.901184 427.114929,683.349121 
	C429.218933,682.134216 431.607239,681.249207 433.988647,680.736267 
	C435.497803,680.411133 437.203491,680.998230 438.820984,681.176147 
	C437.853027,682.594666 436.885071,684.013123 435.553619,685.596558 
z"/>
<path fill="#FDFDFE" opacity="1.000000" stroke="none" 
	d="
M726.064819,712.874390 
	C716.784607,697.718567 716.798950,682.204895 723.670959,666.794922 
	C727.887268,657.340088 736.319763,653.712402 746.556274,653.904236 
	C756.269653,654.086365 763.087158,658.806580 767.003174,667.319641 
	C773.003540,680.364197 773.060120,693.944153 767.651367,707.053650 
	C760.459656,724.484741 739.242310,727.379578 726.064819,712.874390 
z"/>
<path fill="#FDFDFE" opacity="1.000000" stroke="none" 
	d="
M1015.800537,674.368408 
	C1018.569763,661.188904 1026.814697,654.039795 1038.739258,653.933594 
	C1051.047729,653.823975 1058.885010,662.026123 1058.568970,674.808838 
	C1044.355835,674.808838 1030.138428,674.808838 1015.800537,674.368408 
z"/>
<path fill="#FDFDFD" opacity="1.000000" stroke="none" 
	d="
M1428.627930,665.717957 
	C1429.363892,668.814514 1429.931396,671.549438 1430.600830,674.774963 
	C1415.775024,674.774963 1401.488647,674.774963 1387.181763,674.774963 
	C1388.810669,663.684204 1396.472412,655.520996 1406.479980,654.116028 
	C1417.257202,652.603027 1423.920166,656.010498 1428.627930,665.717957 
z"/>
<path fill="#FDFDFD" opacity="1.000000" stroke="none" 
	d="
M1084.657715,833.275879 
	C1101.800537,828.120972 1113.620728,836.102112 1113.769165,852.763367 
	C1099.529541,852.763367 1085.289307,852.763367 1070.424316,852.763367 
	C1072.261353,844.135681 1076.209473,837.369446 1084.657715,833.275879 
z"/>
<path fill="#FAFBFC" opacity="1.000000" stroke="none" 
	d="
M880.239746,870.084717 
	C884.073792,869.549683 887.490417,869.081726 891.662231,868.510254 
	C891.662231,876.657410 891.722534,884.223328 891.587646,891.785645 
	C891.570374,892.757202 890.756531,893.984863 889.943359,894.629028 
	C883.539185,899.702454 876.308167,902.080383 868.118286,900.644409 
	C863.695435,899.868896 860.339417,897.479309 859.303711,892.931274 
	C858.070068,887.513428 858.100281,881.754211 863.088440,878.425171 
	C868.220947,874.999939 874.208801,872.856262 880.239746,870.084717 
z"/>
<path fill="#FDFDFD" opacity="1.000000" stroke="none" 
	d="
M1496.361450,708.583008 
	C1497.480225,702.116028 1501.688721,698.374512 1506.847778,696.357361 
	C1513.712158,693.673523 1520.991577,692.051514 1529.113037,689.674744 
	C1529.113037,698.818115 1529.217407,706.557678 1529.002075,714.288330 
	C1528.969238,715.466797 1527.699707,717.208313 1526.586182,717.656982 
	C1521.432251,719.733948 1516.234619,722.552979 1510.861450,723.053040 
	C1500.496704,724.017700 1496.447266,719.525330 1496.361450,708.583008 
z"/>
</svg>